
<svg width="1600px" height="296px" viewBox="0 0 1600 296" version="1.1" xmlns="http://www.w3.org/2000/svg" xmlns:xlink="http://www.w3.org/1999/xlink">
    <!-- Generator: Sketch 49.3 (51167) - http://www.bohemiancoding.com/sketch -->
    <desc>Created with Sketch.</desc>
    <defs>
        <linearGradient x1="41.3849645%" y1="61.0174676%" x2="42.8672631%" y2="107.843064%" id="linearGradient-1">
            <stop stop-color="#FAFAFA" offset="0%"></stop>
            <stop stop-color="#E6E6E6" offset="100%"></stop>
        </linearGradient>
    </defs>
    <g id="Technology" stroke="none" stroke-width="1" fill="none" fill-rule="evenodd">
        <g id="L1_Document_D" transform="translate(0.000000, -2051.000000)" stroke="url(#linearGradient-1)" stroke-width="2">
            <g id="Wave" transform="translate(0.000000, 2051.000000)">
                <g transform="translate(1057.321930, 63.179620) rotate(10.000000) translate(-1057.321930, -63.179620) translate(-201.178070, -322.320380)">
                    <path d="M-1.27897692e-13,598.102818 C303.413022,454.673366 743.00365,667.706181 1086.81854,619.289219 C1387.74374,576.914144 2199.75395,407.407023 2516.84129,197.150701" id="Stroke-1"></path>
                    <path d="M-4.26325641e-14,598.709694 C292.835251,462.747038 670.025992,697.777812 1013.97716,649.379162 C1315.02511,607.017841 2077.96641,385.761998 2367.56656,174.771432" id="Stroke-3"></path>
                    <path d="M-2.55795385e-13,599.933751 C281.970111,471.249133 596.403851,728.627472 940.151299,680.178178 C1241.01748,637.772531 1954.14886,364.420398 2215.9775,152.392163" id="Stroke-5"></path>
                    <path d="M-1.13686838e-13,598.668659 C271.242301,477.6562 523.112134,756.553449 866.81475,708.20478 C1167.64819,665.889477 1831.34513,341.348014 2065.54561,128.947215" id="Stroke-7"></path>
                    <path d="M-2.13162821e-13,598.699123 C260.516089,485.010495 449.830366,786.179692 793.489224,737.797829 C1094.28133,695.446941 1708.53829,318.872393 1915.11371,105.502267" id="Stroke-9"></path>
                    <path d="M-2.27373675e-13,596.987594 C249.950768,490.77484 376.810308,813.811949 720.639217,765.458689 C1021.57669,723.137097 1645.63248,214.739272 1824.70013,0.690029442" id="Stroke-11"></path>
                </g>
            </g>
        </g>
    </g>
</svg>